<?xml version="1.0" encoding="UTF-8" standalone="yes"?>
<!DOCTYPE svg PUBLIC "-//W3C//DTD SVG 1.1//EN" "http://www.w3.org/Graphics/SVG/1.1/DTD/svg11.dtd">

<svg width="750" height="750" viewBox="0 0 750 750" xmlns="http://www.w3.org/2000/svg" xmlns:xlink="http://www.w3.org/1999/xlink" version="1.1" baseProfile="full">
    <defs>
        <clipPath id="ClipPath733FA470-F992-4A48-A246-E330BE433E1B-56134-00000203363EFDD1" transform="scale(1.000000,-1.000000) translate(0.000000,-750.000000)">
            <path d="M 451.216100 285.703200 L 451.629400 286.909900 L 452.153300 288.235200 L 452.744200 289.604900 L 453.952100 292.181900 L 454.904200 294.049000 L 455.148900 294.571700 L 455.353500 295.122600 L 455.711700 296.232000 L 456.805200 298.993300 L 458.759800 303.652800 L 460.752800 308.272700 L 461.961700 310.915000 L 462.559100 312.104800 L 463.428200 313.942600 L 465.562500 318.680000 L 466.618000 321.138500 L 467.526200 323.362700 L 468.182000 325.132100 L 468.382600 325.777300 L 468.480800 326.226000 L 468.480100 326.378100 L 468.454600 326.634100 L 468.334900 327.431500 L 467.862800 329.980600 L 466.321400 337.401900 L 464.618600 345.074100 L 463.944900 347.936800 L 463.516700 349.581300 L 463.525000 350.393600 L 463.413500 351.554700 L 463.197200 353.017300 L 462.891200 354.734300 L 462.070000 358.742500 L 461.070100 363.201500 L 459.014400 371.960800 L 458.199000 375.505700 L 457.685400 377.990400 L 457.082800 381.075100 L 456.388100 384.142400 L 455.631900 387.198100 L 454.845000 390.248300 L 454.057900 393.298800 L 453.301600 396.355600 L 452.606500 399.424700 L 452.003500 402.511900 L 451.727200 403.703900 L 451.374900 404.878200 L 451.022900 406.050600 L 450.747600 407.236800 L 450.344600 409.384100 L 449.883200 411.620300 L 448.837500 416.240300 L 447.715100 420.859100 L 446.620800 425.239200 L 446.317000 426.278200 L 445.971000 427.307300 L 445.643300 428.341400 L 445.394700 429.395900 L 444.689900 432.717400 L 443.522800 437.526200 L 442.866300 440.017100 L 442.215000 442.314400 L 441.608900 444.229500 L 441.088500 445.574100 L 440.738900 446.494600 L 440.270900 448.022900 L 439.165900 452.097200 L 438.147600 456.184400 L 437.589700 458.672200 L 437.275500 460.689000 L 437.084100 461.690600 L 436.812100 462.679400 L 436.374100 464.108600 L 435.843900 466.015900 L 434.657300 470.639200 L 433.553800 475.297200 L 433.127400 477.248000 L 432.834900 478.738000 L 432.587800 479.920300 L 432.275700 481.109900 L 431.549000 483.433000 L 431.243600 484.532600 L 430.746400 486.515600 L 429.442100 491.981600 L 428.167000 497.531900 L 427.452100 500.867200 L 427.185000 502.204700 L 426.840100 503.682900 L 426.002900 506.882700 L 425.112800 510.110100 L 424.342100 513.008300 L 421.293100 525.503200 L 418.241600 538.008300 L 417.787900 539.950300 L 417.256700 542.401100 L 416.066600 548.079600 L 414.879900 553.544500 L 414.353100 555.728300 L 413.905400 557.296600 L 413.497800 558.438600 L 413.046500 559.571900 L 412.055600 561.818000 L 411.017700 564.046200 L 410.017900 566.267900 L 406.212200 575.061800 L 404.330800 579.637300 L 403.499600 581.812100 L 402.781100 583.851600 L 402.185000 585.485600 L 401.471700 587.219000 L 399.841200 590.877000 L 398.185400 594.610900 L 397.440500 596.439100 L 396.800200 598.205700 L 396.554500 598.863200 L 396.269800 599.507300 L 395.635200 600.773600 L 395.000000 602.041800 L 394.714500 602.688300 L 394.467600 603.349200 L 394.124200 604.258600 L 393.447600 605.945700 L 391.286900 611.197900 L 385.081400 626.022500 L 378.926400 640.530300 L 376.828800 645.386300 L 376.193200 646.816000 L 375.999700 647.231400 L 375.936700 647.358000 L 375.897100 647.428200 L 375.571700 648.176500 L 375.290800 648.809400 L 375.131000 649.089600 L 374.939200 649.349700 L 374.701000 649.592300 L 374.401900 649.820500 L 373.995100 648.473400 L 373.325900 646.557100 L 371.536700 641.839900 L 369.707300 637.315200 L 368.987800 635.639400 L 368.510700 634.629100 L 367.914600 633.493800 L 367.336000 632.311800 L 366.806500 631.107200 L 366.357600 629.904300 L 365.729900 628.096200 L 365.061000 626.302300 L 363.623500 622.748600 L 362.092000 619.226800 L 360.513300 615.720600 L 358.934400 612.213600 L 357.402100 608.689600 L 355.963300 605.132200 L 355.293700 603.335900 L 354.665000 601.525100 L 354.312200 600.625600 L 353.903000 599.747300 L 353.493500 598.868200 L 353.139900 597.966500 L 352.646900 596.598100 L 352.099400 595.246800 L 350.913200 592.572300 L 349.726400 589.896000 L 349.178200 588.542500 L 348.684200 587.171000 L 348.203500 585.875600 L 347.567500 584.353700 L 346.028100 580.907200 L 344.463500 577.385400 L 343.796100 575.769300 L 343.271500 574.342000 L 342.563700 572.424400 L 341.689900 570.344800 L 340.705900 568.159200 L 339.667800 565.923400 L 337.653400 561.524700 L 336.789000 559.473600 L 336.094500 557.595600 L 335.942100 557.070300 L 335.702700 556.158100 L 335.013400 553.390000 L 333.149100 545.599800 L 331.314500 537.699500 L 330.662500 534.793900 L 330.322900 533.163800 L 330.048600 531.810800 L 329.717900 530.467600 L 328.962500 527.797200 L 328.206900 525.126200 L 327.876100 523.782200 L 327.601600 522.428200 L 327.319800 520.998100 L 326.991100 519.576200 L 326.255900 516.746300 L 325.520700 513.916300 L 325.192100 512.494500 L 324.910200 511.064500 L 324.416700 508.641900 L 323.828500 506.230800 L 322.577700 501.435400 L 321.229400 496.228000 L 319.819700 490.849200 L 319.140100 488.149000 L 318.503200 485.470400 L 317.928100 482.834600 L 317.434200 480.263100 L 317.213100 479.134600 L 316.957200 478.012200 L 316.387500 475.777600 L 315.817800 473.542900 L 315.561900 472.420400 L 315.340900 471.291800 L 314.945800 469.331500 L 314.472700 467.384700 L 313.396600 463.513800 L 312.320700 459.644300 L 311.847900 457.699300 L 311.453300 455.741600 L 311.145000 454.195700 L 310.780500 452.660800 L 309.957800 449.609800 L 309.135300 446.559500 L 308.771000 445.025500 L 308.462900 443.480800 L 308.246000 442.388800 L 307.990700 441.303600 L 307.416200 439.144600 L 306.841700 436.985600 L 306.586400 435.900500 L 306.369600 434.808600 L 306.067400 433.231200 L 305.724900 431.660200 L 304.954300 428.533200 L 304.128800 425.418800 L 303.319300 422.308500 L 301.568500 415.441800 L 300.753400 411.988200 L 300.387600 410.256900 L 300.059800 408.522700 L 299.748800 406.940400 L 299.387300 405.366300 L 298.580000 402.230800 L 297.772500 399.093900 L 297.410700 397.517800 L 297.099200 395.933000 L 296.689100 393.982500 L 296.202100 392.045600 L 295.715200 390.108500 L 295.305000 388.157800 L 294.958200 386.389700 L 294.556200 384.631200 L 293.660200 381.130300 L 292.764300 377.629400 L 292.362300 375.870900 L 292.015500 374.102800 L 291.758600 372.788600 L 291.462400 371.482300 L 290.804100 368.883000 L 290.146000 366.284500 L 289.849900 364.979100 L 289.593300 363.666200 L 289.104600 361.106800 L 288.557300 358.559000 L 287.365200 353.482700 L 286.173200 348.407000 L 285.626000 345.859800 L 285.137500 343.301400 L 284.784600 341.648400 L 284.260300 339.558600 L 282.976800 334.703400 L 282.357600 332.255500 L 281.846700 330.005500 L 281.514000 328.112300 L 281.436300 327.349000 L 281.429400 326.734400 L 281.514600 325.962900 L 281.698500 325.209300 L 282.270600 323.750700 L 283.381200 321.108500 L 286.522900 313.854900 L 289.734600 306.611700 L 290.932400 303.982400 L 291.626700 302.541800 L 292.312100 301.082400 L 293.267000 298.827100 L 295.610100 293.094500 L 296.810600 290.199800 L 297.905300 287.674600 L 298.800300 285.810300 L 299.143600 285.217000 L 299.401900 284.898300 L 299.662700 284.788700 L 300.096300 284.723500 L 300.679400 284.697800 L 301.388700 284.706800 L 303.093000 284.809500 L 305.022800 284.993200 L 308.814400 285.448900 L 311.273900 285.765500 L 318.499400 286.517900 L 322.101000 286.949100 L 323.896500 287.205700 L 325.687700 287.500000 L 326.666600 287.606700 L 327.650000 287.635100 L 328.631600 287.663200 L 329.605200 287.769100 L 333.301500 288.371900 L 337.413400 288.920400 L 339.532200 289.144600 L 341.643300 289.319400 L 343.709500 289.433100 L 345.693700 289.473600 L 346.590900 304.724800 L 347.188900 304.724800 L 347.228300 305.905600 L 347.318700 306.874300 L 347.419100 307.702700 L 347.488000 308.462900 L 347.514500 309.807200 L 347.488000 311.154300 L 347.461500 312.501300 L 347.488000 313.845600 L 347.598000 314.908200 L 347.779500 316.094300 L 347.964700 317.352400 L 348.086100 318.630300 L 348.123600 319.846500 L 348.118400 321.065900 L 348.039400 323.509500 L 347.968900 325.950700 L 347.974100 327.167100 L 348.026300 328.379100 L 348.150700 329.158300 L 348.360300 329.926000 L 348.567400 330.697800 L 348.642500 331.090100 L 348.684200 331.489200 L 348.726800 333.655000 L 348.684200 335.825300 L 348.641500 337.995600 L 348.684200 340.161400 L 348.766500 340.784000 L 348.915400 341.394400 L 349.083200 342.001300 L 349.222500 342.613600 L 349.338400 343.468500 L 349.402600 344.394600 L 349.420000 345.374600 L 349.395700 346.391100 L 349.242400 348.465100 L 348.983200 350.478400 L 349.260300 351.027800 L 349.781000 352.094900 L 351.416900 355.495400 L 356.111200 365.352300 L 360.882300 375.457600 L 362.614300 379.168700 L 363.546600 381.220100 L 364.628600 383.697100 L 366.233500 387.246100 L 367.081000 389.045500 L 367.878000 390.660400 L 368.564100 391.939900 L 369.078900 392.733200 L 369.375900 393.063300 L 369.706400 393.374700 L 370.440500 393.944000 L 371.226500 394.446100 L 372.009500 394.886300 L 372.492700 395.104200 L 373.017900 395.264500 L 373.577900 395.369700 L 374.165600 395.422200 L 374.773600 395.424600 L 375.394800 395.379300 L 376.021900 395.288800 L 376.647800 395.155700 L 377.265100 394.982400 L 377.866700 394.771400 L 378.445400 394.525100 L 378.993900 394.246100 L 379.504900 393.936900 L 379.971400 393.600000 L 380.386000 393.237800 L 380.741600 392.852800 L 381.019600 392.438800 L 381.390600 391.775000 L 382.360800 389.830200 L 383.551600 387.283300 L 384.862500 384.399200 L 387.441800 378.679500 L 388.509200 376.373700 L 389.294200 374.790600 L 391.756000 369.873700 L 395.729400 361.652700 L 397.739500 357.402600 L 399.475600 353.646000 L 400.720100 350.822500 L 401.090200 349.898100 L 401.255900 349.372000 L 401.332800 348.792500 L 401.367900 348.205200 L 401.356700 347.016100 L 401.310000 345.823700 L 401.315700 344.647100 L 401.450500 342.553200 L 401.614800 340.460500 L 401.779000 338.367700 L 401.913800 336.273900 L 401.937400 335.078900 L 401.913800 333.881500 L 401.890300 332.684100 L 401.913800 331.489200 L 402.026800 330.510100 L 402.212900 329.545400 L 402.398900 328.580700 L 402.511900 327.601600 L 402.545800 325.883900 L 402.511900 324.162600 L 402.478100 322.441400 L 402.511900 320.723600 L 403.110000 309.958100 L 403.514400 301.687200 L 403.792600 296.621200 L 403.913200 294.848000 L 403.964200 294.275300 L 404.007100 293.959300 L 404.007100 289.473600 L 450.956900 284.688900 Z M 551.117100 227.213500 L 550.514500 230.138700 L 550.089700 232.057400 L 548.640800 237.869300 L 547.974500 240.789100 L 547.398300 243.720000 L 547.181300 244.812700 L 546.926000 245.897600 L 546.351800 248.055000 L 545.777500 250.212900 L 545.522200 251.298600 L 545.305000 252.392300 L 544.706900 255.066000 L 543.603700 259.660100 L 542.469000 264.223800 L 542.037700 265.884600 L 541.776300 266.806200 L 541.205300 268.523300 L 540.952600 269.399600 L 540.759500 270.275100 L 540.219500 273.117900 L 539.587400 275.979600 L 538.853700 278.815000 L 538.008300 281.578900 L 537.639100 282.819900 L 537.169700 284.586900 L 536.064000 289.048400 L 534.120800 297.129100 L 533.080800 301.555500 L 532.071500 306.036200 L 531.543300 308.271400 L 530.980500 310.489300 L 530.369100 312.679700 L 529.694900 314.832500 L 529.312000 316.119900 L 528.968900 317.515300 L 528.342500 320.504800 L 527.697000 323.551400 L 527.330000 325.018100 L 526.913800 326.405500 L 526.688900 326.886600 L 526.302400 327.495000 L 525.775000 328.213100 L 525.127700 329.023300 L 523.555700 330.850300 L 521.752700 332.836000 L 518.117400 336.722800 L 516.617300 338.343900 L 515.550200 339.563300 L 514.976500 340.181400 L 514.354000 340.759500 L 513.731500 341.337600 L 513.157800 341.955700 L 512.283600 342.946400 L 511.363500 343.899500 L 510.443500 344.852700 L 509.569300 345.843300 L 508.120800 347.563700 L 506.632300 349.251300 L 503.588500 352.571700 L 500.544600 355.892200 L 499.056100 357.579800 L 497.607600 359.300200 L 496.875700 360.151900 L 496.033900 361.067900 L 494.146000 363.032700 L 492.194600 365.075000 L 491.273500 366.087900 L 490.430600 367.075300 L 489.793800 367.815000 L 489.126100 368.529500 L 487.739200 369.916200 L 486.352200 371.303000 L 485.684500 372.017400 L 485.047800 372.757100 L 484.147900 373.784700 L 482.458800 375.654500 L 477.780200 380.749100 L 473.146900 385.698000 L 471.514400 387.385500 L 470.985900 387.904400 L 470.693700 388.157800 L 471.027300 387.073400 L 471.487900 385.195200 L 472.610300 380.087800 L 473.701500 374.896100 L 474.401900 371.680600 L 475.225900 368.337500 L 476.015200 364.977500 L 476.745400 361.604800 L 477.392300 358.223600 L 477.652100 356.871100 L 477.945600 355.524500 L 478.588400 352.841200 L 479.231300 350.157600 L 479.524800 348.810900 L 479.784600 347.458100 L 480.045400 346.108800 L 480.342200 344.765800 L 480.995700 342.090400 L 481.649300 339.414900 L 481.946100 338.071800 L 482.206900 336.722400 L 482.504300 335.309700 L 482.953300 333.442500 L 484.042300 328.997300 L 484.550400 326.745500 L 484.946200 324.691700 L 485.081500 323.789900 L 485.163900 322.998800 L 485.185400 322.338700 L 485.137500 321.830100 L 485.085700 321.659200 L 484.974000 321.359100 L 484.586000 320.402700 L 483.255200 317.285000 L 479.204800 307.991900 L 474.883500 297.977300 L 473.214300 293.957800 L 472.606300 292.415200 L 472.188900 291.267900 L 552.033400 222.488000 Z M 198.239800 222.856500 L 199.001400 223.419300 L 200.987500 225.023500 L 203.416100 227.092800 L 206.077700 229.419300 L 211.261500 234.012800 L 213.364600 235.864000 L 214.862400 237.141100 L 219.061900 240.630800 L 223.218300 244.173200 L 231.459300 251.345600 L 239.700200 258.518100 L 243.856600 262.060500 L 248.056200 265.550200 L 250.473500 267.612900 L 252.840800 269.736800 L 255.208200 271.860600 L 257.625500 273.923400 L 259.108500 275.163600 L 260.569900 276.430100 L 263.456900 279.007100 L 266.343800 281.584100 L 267.805200 282.850600 L 269.288200 284.090900 L 269.916200 284.655700 L 270.514300 285.257100 L 271.112300 285.858600 L 271.740400 286.423400 L 272.955700 287.423000 L 274.785000 288.977900 L 275.696900 289.792700 L 276.482600 290.541400 L 277.048900 291.155600 L 277.220700 291.390900 L 277.302600 291.566900 L 277.327500 291.861600 L 277.291000 292.235200 L 277.062300 293.175600 L 276.673900 294.300200 L 276.183000 295.521100 L 275.123400 297.900700 L 274.342100 299.611200 L 269.133900 311.536900 L 266.132600 318.607100 L 265.158100 321.061600 L 264.880600 321.849000 L 264.772700 322.278600 L 264.792600 322.824300 L 264.898200 323.641400 L 265.322500 325.945400 L 265.958500 328.901300 L 266.718800 332.219700 L 268.263400 338.786600 L 268.873200 341.456400 L 269.258300 343.331300 L 269.619600 345.035800 L 270.050500 346.723600 L 270.481500 348.412300 L 270.843300 350.119600 L 271.371700 352.899700 L 271.959800 355.668000 L 273.235700 361.184700 L 274.511500 366.701200 L 275.099600 369.469100 L 275.627900 372.248800 L 275.953100 373.686200 L 276.360800 375.106000 L 276.768500 376.525200 L 277.093200 377.960500 L 277.924200 382.750400 L 278.411100 385.253700 L 279.007100 387.858800 L 278.409000 387.858800 L 275.900100 385.146700 L 272.816500 381.716400 L 269.837800 378.329600 L 267.643500 375.747600 L 266.763800 374.730900 L 265.837100 373.752600 L 263.905500 371.860000 L 261.973800 369.967400 L 261.047100 368.989100 L 260.167400 367.972400 L 258.684200 366.212500 L 257.158700 364.487200 L 254.037000 361.094500 L 250.915400 357.701700 L 249.389900 355.976400 L 247.906600 354.216500 L 246.556400 352.701200 L 244.826700 350.884000 L 242.992200 348.938800 L 242.121500 347.972500 L 241.327700 347.039400 L 240.825700 346.498600 L 240.281100 345.992800 L 239.736400 345.486900 L 239.234400 344.946100 L 237.799000 343.294000 L 235.692500 340.983500 L 230.466800 335.353700 L 227.847700 332.517700 L 225.557800 329.989700 L 223.847400 328.011300 L 223.287600 327.303700 L 222.966400 326.824100 L 222.907000 326.670700 L 222.815600 326.375100 L 222.545100 325.393700 L 221.710600 322.119700 L 219.326700 312.332800 L 215.370800 295.843300 L 210.944900 278.139900 L 209.839300 273.955100 L 209.316700 271.852300 L 208.881500 269.736800 L 208.689000 268.765500 L 208.462800 267.800100 L 207.954500 265.879300 L 207.446200 263.958400 L 207.220100 262.992900 L 207.027500 262.021500 L 206.730500 260.604400 L 206.311700 258.931300 L 205.269900 255.151900 L 204.224600 251.353400 L 203.801600 249.656300 L 203.498800 248.205700 L 203.088100 246.105400 L 202.612300 244.008100 L 201.552800 239.820200 L 200.494400 235.638500 L 200.020000 233.548800 L 199.611200 231.459300 L 199.210700 229.318800 L 198.756200 227.128800 L 198.243300 224.861300 L 197.667400 222.488000 Z M 375.382800 223.721200 L 375.780100 224.467100 L 376.608200 226.229800 L 377.465300 228.251500 L 378.332400 230.409500 L 380.020200 234.643100 L 380.802800 236.473200 L 381.519100 237.948500 L 382.212300 239.371600 L 383.410700 241.961300 L 386.598200 249.034200 L 389.631000 255.954500 L 390.636100 258.353500 L 390.931500 259.112000 L 391.058500 259.509500 L 391.128900 260.102800 L 391.173100 260.908000 L 391.193800 263.038700 L 391.142200 265.670600 L 391.039700 268.572500 L 390.767900 274.262200 L 390.550200 278.259500 L 390.497400 279.789300 L 390.489900 281.321500 L 390.550200 284.389900 L 390.610500 287.458300 L 390.603000 288.990500 L 390.550200 290.520300 L 390.438600 291.425100 L 390.251100 292.314500 L 390.063700 293.204000 L 389.952100 294.108800 L 389.905800 295.452100 L 389.899100 296.797400 L 389.952100 299.491600 L 390.005100 302.185800 L 389.998500 303.531100 L 389.952100 304.874400 L 389.653100 309.210500 L 389.354000 313.546600 L 389.323100 315.115000 L 389.354000 316.686600 L 389.384900 318.258200 L 389.354000 319.826500 L 389.232500 321.248400 L 389.055000 322.667400 L 388.877500 324.086400 L 388.755900 325.508300 L 388.629300 329.939600 L 388.477100 336.533500 L 388.372800 339.878300 L 388.239900 342.848100 L 388.071100 345.137500 L 387.970800 345.931700 L 387.858800 346.441300 L 387.465400 347.495800 L 386.968200 348.642900 L 385.769800 351.085200 L 384.479600 353.508300 L 383.313400 355.651900 L 382.840200 356.580200 L 382.400900 357.526600 L 381.578900 359.449700 L 380.756900 361.372800 L 380.317600 362.319300 L 379.844400 363.247500 L 378.771900 365.246300 L 377.260500 368.144900 L 376.502700 369.663100 L 375.830000 371.084300 L 375.307400 372.300900 L 374.999900 373.205700 L 374.401900 373.205700 L 373.925000 372.211700 L 373.291600 370.791600 L 371.762700 367.243100 L 370.230100 363.700400 L 369.592100 362.287600 L 369.108800 361.303800 L 367.559700 358.316600 L 365.237000 353.712700 L 363.026100 349.196200 L 362.239200 347.503300 L 361.812200 346.471200 L 361.726800 346.008800 L 361.639800 345.162300 L 361.464100 342.523900 L 361.124600 334.911900 L 360.837200 326.941800 L 360.645900 321.919800 L 360.047800 309.958100 L 360.009500 308.016300 L 360.047800 306.070500 L 360.086100 304.124700 L 360.047800 302.183000 L 359.929100 300.909200 L 359.748800 299.641100 L 359.568400 298.373000 L 359.449700 297.099200 L 359.409800 295.942500 L 359.404100 294.784000 L 359.449700 292.464100 L 359.495300 290.144100 L 359.489600 288.985600 L 359.449700 287.828900 L 359.389700 287.155300 L 359.300200 286.483200 L 359.210700 285.811100 L 359.150700 285.137500 L 359.115400 283.345100 L 359.150700 281.549000 L 359.186000 279.752900 L 359.150700 277.960500 L 359.090600 277.286900 L 359.001100 276.614800 L 358.911700 275.942700 L 358.851600 275.269100 L 358.754400 271.839600 L 358.705000 266.730800 L 358.751300 261.727100 L 358.825300 259.822100 L 358.941400 258.612400 L 359.105800 258.044700 L 359.453400 257.109500 L 360.601300 254.340700 L 362.191000 250.715300 L 364.028500 246.642400 L 367.670800 238.791300 L 369.087500 235.831400 L 369.976000 234.060900 L 370.606600 232.805700 L 371.181000 231.510100 L 371.716300 230.177500 L 372.229500 228.811700 L 373.257600 225.994200 L 373.806700 224.549700 L 374.401900 223.086100 L 374.999900 223.086100 Z M 374.900600 114.836900 L 375.473300 115.731800 L 376.109000 116.880000 L 376.796700 118.242800 L 378.284200 121.456400 L 379.848000 125.061300 L 382.852600 132.200400 L 384.117800 135.112400 L 384.652600 136.267800 L 385.107600 137.171000 L 385.770400 138.482600 L 386.378100 139.824100 L 387.501400 142.556500 L 388.624100 145.287500 L 389.230800 146.627300 L 389.892300 147.936500 L 390.627500 149.396200 L 391.590600 151.440000 L 393.895000 156.544100 L 396.194200 161.777700 L 397.876700 165.669800 L 400.050500 170.941300 L 401.203700 173.601000 L 401.803800 174.871200 L 402.422200 176.076500 L 403.106600 177.479900 L 404.251000 179.961800 L 407.249200 186.676100 L 410.076800 193.249100 L 411.007800 195.554400 L 411.279300 196.299300 L 411.393500 196.710500 L 411.338300 197.329300 L 411.110500 198.504300 L 410.234300 202.204500 L 408.959200 207.173900 L 407.479800 212.775800 L 404.686100 223.328800 L 403.760700 227.006000 L 403.501000 228.166200 L 403.409000 228.767900 L 395.633900 228.767900 L 395.253200 228.162900 L 394.892400 227.431400 L 394.224500 225.762400 L 393.618400 224.108400 L 393.334800 223.395600 L 393.062200 222.816900 L 392.170400 221.103800 L 391.318400 219.371600 L 389.681000 215.875600 L 388.044700 212.381400 L 387.193900 210.651300 L 386.303800 208.941300 L 386.059200 208.418700 L 385.854500 207.867700 L 385.496400 206.758300 L 385.031700 205.563300 L 384.472800 204.392500 L 383.253500 202.123200 L 382.471500 200.540300 L 382.046300 199.758300 L 381.549000 199.043000 L 380.864600 198.306700 L 380.084500 197.647600 L 379.225100 197.076800 L 378.302800 196.605300 L 377.333900 196.244100 L 376.334900 196.004300 L 375.322200 195.896900 L 374.815800 195.896300 L 374.312100 195.932900 L 373.365700 196.066800 L 372.379600 196.274100 L 371.417800 196.564900 L 370.544200 196.949700 L 369.910200 197.313800 L 369.263200 197.742300 L 368.658600 198.223000 L 368.151900 198.744000 L 367.696500 199.448400 L 367.051000 200.654900 L 365.304300 204.276900 L 363.141500 209.016000 L 360.792400 214.278300 L 356.454000 223.996100 L 354.924100 227.263600 L 354.419500 228.239600 L 354.244800 228.530700 L 354.126700 228.678200 L 353.904900 228.816800 L 353.617500 228.928800 L 352.876400 229.082600 L 351.962800 229.159200 L 350.936200 229.178000 L 348.782000 229.120700 L 346.889900 229.066900 L 346.291800 228.767900 L 346.199100 227.972400 L 345.937300 226.686500 L 345.005500 222.926000 L 343.693500 218.051300 L 342.198700 212.627500 L 340.718400 207.219500 L 339.449800 202.392400 L 338.956600 200.373100 L 338.590400 198.711000 L 338.375700 197.476500 L 338.332900 197.041800 L 338.337300 196.740400 L 338.455100 196.310100 L 338.733600 195.538100 L 339.687000 193.158900 L 342.582200 186.389500 L 345.657700 179.472700 L 346.836200 176.909000 L 347.547800 175.448500 L 347.709000 175.119300 L 348.005300 174.481500 L 348.967200 172.362700 L 352.111200 165.330700 L 361.230600 144.711100 L 370.222100 124.156700 L 373.206200 117.206100 L 374.064200 115.140300 L 374.302600 114.532100 L 374.370200 114.343100 L 374.401900 114.234400 Z"></path>
        </clipPath>
    </defs>
    <g transform="scale(1.000000,-1.000000) translate(0,-750)">
        <path d="M 9.561078 115.832536 C 11.697633 115.832536 15.802265 116.258407 16.797905 115.443765 C 17.743367 114.670232 28.952537 87.795739 30.823032 85.509562 C 31.408854 84.793574 32.403432 84.152516 33.215376 83.715304 C 34.292820 83.135153 35.776382 82.832670 36.983312 82.698550 C 39.658625 82.401309 42.537421 83.751922 44.220176 85.808605 C 44.947649 86.697756 45.384538 87.885573 45.924707 88.888763 C 46.722160 90.369728 47.631014 91.914356 48.167530 93.523931 C 48.406554 94.240976 48.614495 95.037515 48.974968 95.706923 C 51.412724 100.234227 53.290425 105.045718 55.733334 109.582529 C 56.447156 110.908220 57.261920 114.127689 58.305097 115.533493 L 66.080216 115.533493 C 66.080216 113.955305 74.274132 85.151801 74.064651 83.476091 C 73.912092 82.255487 66.156370 64.816241 65.093360 62.842120 C 63.418102 59.730885 61.959182 55.728352 60.547920 52.435407 C 58.987384 48.794156 54.152075 37.652420 52.563485 34.702139 C 50.710351 31.260646 49.635857 27.385458 47.778796 23.936588 C 45.584365 19.861259 39.516102 3.364868 37.073039 1.000000 C 36.789627 2.445198 11.184370 60.421234 10.218958 62.214100 C 9.095839 64.299934 1.170812 82.207056 1.008453 83.505988 C 0.699481 85.977698 8.962991 112.724162 8.962991 115.533493 Z" transform="scale(1.000000,1.000000) translate(337.328875,113.234450)" fill="#fcae4b" opacity="1.000000"></path>
        <path d="M 36.885167 173.250022 L 36.287081 172.950979 C 36.287081 170.141648 28.023571 143.395184 28.332543 140.923474 C 28.494902 139.624542 36.419929 121.717419 37.543048 119.631586 C 38.508460 117.838720 64.113717 59.862683 64.397129 58.417486 C 66.840192 60.782354 72.908455 77.278745 75.102885 81.354074 C 76.959946 84.802944 78.034440 88.678132 79.887574 92.119624 C 81.476165 95.069906 86.311473 106.211642 87.872010 109.852893 C 89.283272 113.145838 90.742191 117.148371 92.417450 120.259606 C 93.480460 122.233726 101.236182 139.672973 101.388741 140.893577 C 101.598221 142.569286 93.404306 171.372791 93.404306 172.950979 L 85.629187 172.950979 L 117.028708 173.250022 L 117.925837 169.960548 C 119.510479 165.228980 120.761796 160.944297 122.172234 156.712926 C 123.280668 153.387682 124.622209 150.140572 125.730854 146.814608 C 126.105025 145.692123 128.870536 137.928878 128.840909 137.484479 C 128.743819 136.028122 122.877908 124.026526 121.783500 121.994034 C 121.127516 120.775798 120.882738 119.381360 120.228454 118.166304 C 118.997140 115.879536 117.757048 113.595814 116.729665 111.198586 C 114.827062 106.759180 110.158651 96.432049 107.997622 92.418667 C 106.997597 90.561519 106.425848 88.474410 105.425823 86.617261 C 103.298566 82.666599 101.751216 78.425895 99.624417 74.476084 C 98.265946 71.953252 97.513958 69.104208 96.155488 66.581376 C 91.578075 58.080425 88.346075 48.874106 83.775134 40.385175 C 82.977734 38.904330 82.626045 37.225903 81.831354 35.750007 C 78.253249 29.104997 75.690478 21.910500 72.112455 15.265557 C 71.188074 13.548892 70.584361 11.658742 69.660280 9.942576 C 68.930989 8.588194 66.269248 1.108883 65.084943 1.001218 C 63.969445 0.899810 61.308472 7.161434 60.808612 8.327773 C 57.323645 16.459364 53.046007 24.247536 49.564601 32.370806 C 47.694771 36.733755 45.627782 41.134550 43.374387 45.319385 C 42.936373 46.132882 42.788601 47.090843 42.357670 47.891185 C 39.240075 53.680963 36.951965 59.895450 33.834943 65.684247 C 32.474695 68.210380 31.751099 71.092137 30.395948 73.608888 C 26.139818 81.513086 23.139739 90.075093 18.882790 97.980898 C 17.522575 100.506970 16.765500 103.365460 15.413861 105.875605 C 12.503559 111.280494 10.430509 117.095584 7.519153 122.502429 C 6.728026 123.971624 6.337535 125.636670 5.545440 127.107663 C 4.741078 128.601520 1.000000 136.021503 1.000000 137.962940 L 1.897129 137.962940 C 1.897129 141.180779 5.334923 149.263165 6.322981 152.227280 C 7.191416 154.832642 7.699094 157.551848 8.565804 160.151921 C 8.897409 161.146793 9.586468 162.017800 9.911498 162.992830 C 10.779782 165.597740 12.662679 169.564345 12.662679 172.950979 Z" transform="scale(1.000000,1.000000) translate(310.004785,55.816964)" fill="#fb4f40" opacity="0.996078"></path>
        <path d="M 1.000000 73.397646 L 69.181818 14.785206 C 71.692521 13.378178 82.540736 3.209811 84.702160 2.045979 C 87.700472 0.431492 93.621066 1.276950 96.394737 4.019656 C 95.153866 2.158350 93.044976 1.338183 91.340902 1.148850 C 89.240335 0.915445 86.854169 0.890036 84.821785 1.567517 C 83.081087 2.147731 72.660373 11.517737 70.348093 13.409615 C 67.341860 15.869247 64.562375 18.605529 61.556220 21.065110 C 50.612937 30.018705 40.202818 39.623505 29.259569 48.577072 C 28.169635 49.468837 27.239469 50.556110 26.149514 51.447878 C 22.864273 54.135816 19.685986 56.953719 16.400718 59.641665 C 15.639708 60.264310 15.038558 61.082388 14.277519 61.705070 C 10.337619 64.928612 6.584585 68.379876 2.644737 71.603388 C 2.157974 72.001649 1.797994 72.574869 1.000000 73.397646 Z" transform="scale(1.000000,1.000000) translate(478.366029,186.769818)" fill="#00061b" opacity="0.521569"></path>
        <path d="M 46.753589 34.193780 C 45.749983 32.941821 45.111142 31.671327 44.361244 30.754785 C 43.917121 30.211967 43.310152 29.802387 42.866029 29.259569 C 38.171536 23.521856 32.907341 18.250785 28.212919 12.513158 C 26.856463 10.855267 21.855461 4.752060 20.108859 4.169849 C 18.412694 3.604471 5.188449 3.990431 1.598086 3.990431 L 1.897129 1.000000 L 1.000000 4.289474 C 4.510008 4.289474 18.758177 3.856630 20.228484 4.648311 C 21.246345 5.196413 21.867507 6.362837 22.830144 7.578947 C 23.994580 8.157504 36.180208 22.151275 37.543048 23.817000 C 38.402083 24.866900 41.898937 28.232113 42.267943 29.708134 Z" transform="scale(1.000000,1.000000) translate(426.033493,224.777512)" fill="#030318" opacity="0.627451"></path>
        <path d="M 89.217703 71.278346 L 87.722488 69.185045 C 86.880955 68.650497 86.214878 68.345738 85.778708 67.988872 C 80.423405 63.607260 75.494090 58.704241 70.138760 54.322619 C 69.255903 53.600270 64.669482 50.002916 64.098086 48.850116 C 63.045845 48.074760 62.096077 47.802294 61.406699 46.457772 C 60.550870 45.921636 59.829717 45.726815 59.313397 44.663513 C 58.087326 43.689494 56.770633 43.004449 55.874402 42.271169 C 55.004577 41.559494 54.281802 40.641904 53.422245 39.938618 C 48.335255 35.776547 43.415520 31.397895 38.320571 27.229288 C 37.715728 26.734429 37.250779 26.109344 36.645937 25.614485 C 35.233432 24.458788 29.397593 20.011157 28.511962 18.347724 C 27.384070 17.485910 23.974759 14.975289 22.979665 14.161121 C 21.723740 13.133546 10.691867 3.706756 10.270335 2.797485 C 8.185554 0.842082 3.927218 1.003226 1.000000 1.003226 L 1.000000 1.601312 C 5.310405 1.005934 8.740287 1.860547 11.765550 4.890786 C 12.179069 5.546110 27.583930 18.355127 28.212919 18.646767 L 28.811005 20.141982 L 39.277512 28.216145 C 39.758564 29.222136 40.319191 29.763924 41.370813 30.010403 C 42.979827 31.263475 44.480420 33.139120 45.736835 34.167109 C 48.210612 36.191095 50.650786 38.214787 53.123202 40.237662 C 54.417153 41.296360 55.496953 42.669176 56.801428 43.736487 C 57.604360 44.393418 60.072955 45.952372 61.107656 46.756815 C 61.958757 48.364137 75.372932 59.447870 77.405502 61.110882 C 77.875053 61.495060 78.186576 62.037293 78.751196 62.905140 Z" transform="scale(1.000000,1.000000) translate(178.724880,186.496774)" fill="#000216" opacity="0.580392"></path>
        <path d="M 202.863723 506.261243 C 203.819888 506.082204 204.155179 505.895582 204.418733 505.573443 C 204.974168 504.894596 205.233378 503.975117 205.644838 503.211005 C 206.087774 502.388382 206.789632 501.725738 207.229745 500.908374 C 207.854084 499.748897 207.973953 498.372833 208.605335 497.200237 C 211.409645 491.992261 212.335108 489.693643 214.616130 484.371287 C 215.397036 482.549142 217.554870 476.905743 218.204647 475.699038 C 220.060592 472.252260 221.657640 468.569685 222.899608 464.843779 C 223.152902 464.083899 223.659021 463.370859 223.976156 462.630862 C 225.487169 459.105182 227.037548 455.599816 228.252487 451.955021 C 228.670090 450.702191 229.657529 449.653748 230.076642 448.396410 C 230.507235 447.104633 235.279369 434.889364 235.638836 434.221771 C 236.899039 431.881405 238.204122 429.396745 239.047934 426.865310 C 239.389491 425.840639 239.578806 424.683231 240.094585 423.725358 C 242.544909 419.174754 246.881589 408.507884 248.557518 403.480139 C 248.979736 402.213443 249.964458 401.173153 250.381673 399.921537 C 252.385778 393.909193 255.612598 388.355529 257.618501 382.337791 C 258.241316 380.469374 259.326747 378.768103 259.951051 376.895221 C 261.192844 373.169813 262.043271 368.029692 262.732130 364.126079 C 263.171358 361.637199 264.211023 359.234597 264.646013 356.769609 C 265.017741 354.663199 265.440449 352.566893 265.812288 350.459807 C 265.986779 349.471022 266.513293 348.536217 266.829042 347.589001 C 267.183639 346.525178 270.362826 332.847266 270.626874 331.350948 C 270.833291 330.181303 271.589118 329.187755 271.793149 328.031578 C 273.454930 318.614822 276.530308 309.461204 278.192678 300.041154 C 278.349960 299.149840 278.753048 298.419823 279.029977 297.588998 C 279.394448 296.495624 279.370436 295.360767 279.568269 294.239712 C 279.926404 292.210278 280.593452 290.087607 281.242903 288.139226 C 282.059098 285.690668 282.411651 283.011583 282.857742 280.483731 C 283.324334 277.839712 285.577553 271.750098 286.057489 269.030385 C 286.353077 267.355466 287.008648 263.246324 287.492910 261.793539 C 287.953022 260.413203 288.645356 258.951212 288.898398 257.517227 C 289.010121 256.884209 288.966130 256.236363 289.077853 255.603363 C 289.872694 251.099166 291.332199 246.716196 292.128077 242.206219 C 292.362150 240.879806 293.086398 239.666487 293.324250 238.318659 C 293.511517 237.257476 293.640008 236.115402 293.982130 235.088979 C 294.245937 234.297617 303.672969 224.706641 305.136451 222.917941 C 306.884344 220.781628 309.062830 219.082616 310.818269 216.937080 C 313.272702 213.937217 316.847399 210.764315 318.892431 208.264831 C 323.444726 202.700916 328.778186 197.777139 333.336226 192.206234 C 334.747721 190.481040 336.651767 189.050050 338.031187 186.584209 C 342.282962 182.152243 346.402662 178.096825 350.052704 173.635630 C 351.514367 171.849185 353.307123 170.289352 354.777599 168.492104 C 357.587067 165.058310 360.999146 162.117390 363.808685 158.683477 C 365.410875 156.725277 371.842567 150.790024 372.421140 149.054305 C 372.771421 148.003461 372.749708 146.842902 373.019226 145.764831 C 373.324157 144.545106 373.916355 143.134374 373.916355 141.129664 C 374.797402 140.549957 376.654588 131.444349 376.876888 130.184695 C 377.255137 128.041239 381.102571 112.483695 381.751269 110.537544 C 382.429230 108.503718 386.154779 92.462408 386.595788 89.963403 C 386.930147 88.068656 387.827091 86.076081 388.180694 84.072233 C 388.376070 82.965200 388.377625 81.843345 388.629259 80.752862 C 388.724639 80.339620 389.037268 80.067164 389.167551 79.676315 C 389.783534 77.828366 390.076764 75.872120 390.692663 74.024393 C 390.899802 73.403007 396.383690 50.945944 396.553900 49.981324 C 396.681122 49.260499 396.635828 48.520350 396.763252 47.798331 C 396.955579 46.708433 397.583463 45.816139 397.929527 44.778004 C 398.174132 44.044133 398.124179 43.176473 398.258467 42.415556 C 398.718664 39.807725 399.622374 37.278408 400.082623 34.670334 C 400.432158 32.689635 401.149592 30.701498 401.637632 28.749267 C 402.247319 26.310593 402.756091 23.806963 403.192678 21.333020 C 403.651285 18.734196 405.045926 14.619114 405.555125 11.733745 C 405.711902 10.845248 405.681829 9.780348 405.525192 8.892836 C 405.196909 7.032471 404.168464 5.934577 403.222575 3.868898 C 400.448904 1.126193 394.528310 0.280735 391.529999 1.895221 C 389.368574 3.059054 378.520359 13.227421 376.009656 14.634449 L 307.827838 73.246889 L 304.239321 75.340190 L 303.043149 73.246889 L 301.248891 72.050717 L 296.763245 67.565071 C 296.394240 66.089050 292.897385 62.723837 292.038350 61.673937 C 290.675510 60.008211 278.489882 46.014440 277.325446 45.435884 C 276.362810 44.219773 275.741648 43.053349 274.723786 42.505247 C 273.253479 41.713566 259.005310 42.146410 255.495302 42.146410 L 224.095781 41.847367 C 223.052604 40.441563 222.237840 37.222094 221.524018 35.896403 C 219.081109 31.359593 217.203408 26.548101 214.765652 22.020798 C 214.405179 21.351390 214.197238 20.554850 213.958214 19.837805 C 213.421698 18.228230 212.512844 16.683602 211.715391 15.202638 C 211.175222 14.199447 210.738333 13.011630 210.010860 12.122480 C 208.328105 10.065796 205.449309 8.715184 202.773996 9.012424 C 201.567066 9.146544 200.083504 9.449028 199.006060 10.029178 C 198.194116 10.466390 197.199538 11.107448 196.613716 11.823436 C 194.743221 14.109613 183.534051 40.984106 182.588589 41.757640 C 181.592949 42.572281 177.488317 42.146410 175.351762 42.146410 L 151.129274 41.847367 C 146.272575 42.407876 136.659885 41.612652 133.126878 42.236138 C 132.383771 42.367260 131.929455 42.775028 130.794345 43.342583 C 128.292774 45.905261 126.207960 48.532827 124.215398 50.968181 C 123.771275 51.510998 123.164306 51.920579 122.720183 52.463396 C 118.781599 57.277220 113.786678 63.191159 109.412766 67.565071 C 108.313087 68.664750 103.243669 74.962871 102.415151 75.100941 C 100.820429 75.366744 98.348717 71.826706 96.404393 70.854544 L 85.937886 62.481339 C 85.373265 61.613492 85.061743 61.071258 84.592192 60.687080 C 82.559622 59.024068 69.145447 47.940335 68.294345 46.333013 C 67.259645 45.528570 64.791049 43.969616 63.988118 43.312686 C 62.683643 42.245374 61.603843 40.872559 60.309892 39.813860 C 57.837476 37.790986 55.397301 35.767293 52.923525 33.743308 C 51.667110 32.715319 50.166517 30.839673 48.557503 29.586602 C 47.505881 29.340122 46.945253 28.798334 46.464202 27.792343 L 35.997695 19.718181 L 35.399608 18.222965 C 34.770619 17.931325 19.365759 5.122308 18.952240 4.466984 C 15.926977 1.436745 12.497095 0.582132 8.186690 1.177511 C 7.213961 1.442178 6.581663 1.948485 6.123285 2.254059 C 3.381962 4.081619 0.822627 7.043817 1.009656 10.597367 C 1.065240 11.653450 1.184732 12.785636 1.368512 13.827047 C 1.971639 17.244774 4.124754 23.365218 4.478549 25.370102 C 5.175655 29.320324 7.360565 38.860620 8.575442 42.505247 C 8.850821 43.331387 8.778088 44.218311 9.083819 45.734927 C 9.992527 46.346246 9.963898 47.283049 10.070657 47.888022 C 10.429327 49.920476 11.424437 52.768363 11.655582 54.078236 C 11.829654 55.064596 11.780263 56.080568 11.954625 57.068666 C 12.260717 58.803137 14.467438 68.075975 14.974971 69.598578 C 15.755249 71.939409 16.606464 74.358066 17.038357 76.805509 C 17.181372 77.615878 17.134591 78.447277 17.277606 79.257647 C 17.477385 80.389778 18.055111 81.505775 18.055111 83.414353 C 19.156744 84.246157 19.753542 89.101397 19.968994 90.322240 C 20.141245 91.298378 20.984048 94.683221 21.284772 95.585391 C 21.522053 96.297236 22.005357 96.909828 22.241714 97.618898 C 23.112047 100.229897 23.469605 103.081731 23.946263 105.782789 C 24.638940 109.707964 26.280665 113.927340 26.906778 117.475365 C 27.773616 122.387396 29.949813 131.927407 31.482152 136.524393 C 32.560902 139.760675 33.396399 147.000155 34.711813 149.443076 C 35.223957 150.394192 35.917275 151.215451 36.595781 152.044736 C 37.282697 152.884301 49.474801 165.732616 50.052719 165.950238 C 50.704298 166.894174 51.096707 167.641562 51.547934 168.193061 C 53.195500 170.206753 55.283108 171.861145 56.930709 173.874879 C 61.309886 179.227207 66.307504 184.072780 70.686690 189.425118 C 71.397287 190.293626 72.368437 190.948955 73.079034 191.817463 C 75.761741 195.096327 78.769550 198.107998 81.452240 201.386841 C 83.017097 203.299444 86.427520 206.470928 88.629274 209.161961 C 89.695170 210.464722 91.151894 211.447715 92.217790 212.750477 C 93.381493 214.172781 94.642604 215.514777 95.806307 216.937080 C 96.740739 218.079163 97.951942 218.994664 98.886447 220.136826 C 101.146938 222.899659 111.176370 232.750792 112.193863 234.640415 C 112.898279 235.948624 114.346977 241.841274 114.346977 244.000477 L 115.244106 244.000477 C 115.244106 246.054093 116.066906 247.616361 116.320654 249.054312 C 116.555480 250.384946 116.534407 251.760745 116.769218 253.091394 C 117.008206 254.445607 117.596743 255.633747 118.025203 256.919141 C 118.308934 257.770320 118.229526 258.675035 118.384058 259.550717 C 118.860051 262.248012 119.703933 264.945748 120.567069 267.535170 C 121.026299 268.912846 120.960279 270.453684 121.314677 271.871294 C 121.659968 273.252443 122.354393 274.573206 122.600558 275.968188 C 123.478091 280.940827 127.014469 295.489795 128.581419 300.190676 C 129.540114 303.066731 132.950307 318.867114 133.575442 322.409572 C 134.039106 325.036976 135.066864 327.721144 135.907974 330.244504 C 136.221309 331.184477 137.557894 337.799744 137.791960 339.126068 C 138.172231 341.280984 139.203629 343.238011 139.586219 345.405972 C 139.879299 347.066811 140.340273 348.682187 140.632869 350.340183 C 140.764367 351.085383 140.619521 351.859488 140.752494 352.612921 C 140.990888 353.963903 141.519863 355.214112 141.948666 356.500481 C 142.654635 358.618427 144.587473 365.971342 144.968994 368.133245 C 145.203908 369.464472 146.127330 375.136991 146.404379 375.968177 C 146.992574 377.732723 147.958627 379.405596 149.335015 381.261243 C 149.335015 382.986984 153.173226 390.832094 153.820661 392.774401 C 154.862126 395.898796 156.120766 398.777586 157.110135 401.745693 C 157.389741 402.584510 158.056142 403.267925 158.336204 404.108140 C 159.053023 406.258567 164.727683 420.335493 165.602965 421.961005 C 165.740797 422.216991 166.001788 422.369909 166.679513 422.828228 L 170.567073 434.490908 C 171.686711 435.343290 176.558138 446.871998 177.086226 448.456223 C 177.472432 449.614880 177.687266 450.797662 178.073046 451.955021 C 178.717025 453.886937 179.816992 455.691625 180.465391 457.636839 C 181.084553 459.494307 182.211976 461.201933 182.827838 463.049520 C 183.791670 465.941017 185.427554 468.575940 186.386458 471.452632 C 188.149755 476.742543 196.918381 495.882060 199.753668 501.147605 C 200.531634 502.592387 201.989480 504.512756 202.863723 506.261243 Z M 196.972590 447.708615 C 196.180032 446.236746 195.350195 444.575921 194.819458 442.983729 C 191.591478 433.299771 186.360134 424.304304 183.126881 414.604544 C 182.719117 413.381250 182.010869 412.273255 181.601769 411.045934 C 180.376051 407.368801 178.374872 403.937032 177.146020 400.250477 C 176.115790 397.159787 172.897537 390.914120 171.733348 387.421523 C 170.117218 382.573164 166.132026 375.402275 164.556314 370.675111 C 163.998501 369.001701 159.183628 348.503463 158.784769 346.243308 C 158.145268 342.619423 156.703541 339.134645 156.063484 335.507654 C 155.388131 331.680654 154.047403 327.970752 153.372097 324.144018 C 152.800580 320.905422 151.836415 317.702250 151.039546 314.514828 C 149.351432 307.762318 147.087617 300.094964 145.896020 293.342583 C 145.363193 290.323232 144.335604 287.390976 143.802719 284.371291 C 142.876398 279.122140 140.840102 274.062399 139.915159 268.821051 C 139.184511 264.680717 137.654728 260.696953 136.924728 256.560286 C 136.408905 253.637287 135.347210 250.810810 134.831427 247.888037 C 134.087437 243.672093 132.818244 239.536264 131.781184 235.388022 C 130.641557 230.829514 129.338365 226.230386 128.521625 221.602145 C 127.774703 217.369635 126.309423 213.252981 125.561092 209.012439 C 125.099520 206.396866 124.228477 203.853301 123.766833 201.237319 C 122.931980 196.506483 121.312196 191.913037 120.477360 187.182295 C 119.856653 183.664960 118.675120 180.259076 118.055118 176.745685 C 116.847377 169.901868 114.806580 163.221723 113.599369 156.380860 C 112.949142 152.696239 109.723821 142.659919 109.891228 139.813867 C 109.921126 139.305727 109.998914 138.773134 110.160374 138.288755 C 110.813718 136.328723 119.062780 117.526393 120.088607 115.621276 C 121.473359 113.049603 126.734335 98.881261 127.863727 97.977735 C 128.752614 97.266637 138.006691 98.652859 139.735740 98.844968 C 144.555375 99.380491 149.379513 99.737643 154.149601 100.579432 C 155.448974 100.808725 156.777029 100.620909 158.067058 100.848578 C 162.586317 101.646077 169.006787 102.553109 174.155589 102.553109 L 175.052719 117.804305 L 175.650805 117.804305 C 175.650805 119.551977 175.897220 120.542422 175.949848 121.542343 C 176.044021 123.331645 175.855674 125.135817 175.949848 126.925118 C 176.018858 128.236310 176.458763 130.015569 176.547934 131.709807 C 176.718326 134.947250 176.273135 138.233753 176.488140 141.458604 C 176.558359 142.512121 177.089433 143.493512 177.146020 144.568659 C 177.297744 147.451423 176.994296 150.358144 177.146020 153.240908 C 177.190340 154.082983 177.538927 154.869297 177.684312 155.693046 C 178.067185 157.862755 177.843141 160.975228 177.445063 163.557894 C 178.212542 164.979923 190.831053 191.552237 192.008446 194.299535 C 192.887741 196.351176 196.450039 204.479579 197.540742 205.812693 C 198.281933 206.718560 199.453683 207.417798 200.471379 207.965788 C 202.923271 209.286038 207.477495 208.041780 209.203422 205.932281 C 210.416453 204.449719 216.128552 190.892623 217.756082 187.870109 C 219.258110 185.080587 229.427235 164.097913 229.717805 162.451449 C 229.988216 160.919021 229.696026 159.276430 229.777599 157.726554 C 229.924602 154.933492 230.228682 152.146410 230.375685 149.353348 C 230.459395 147.762858 230.291975 146.159150 230.375685 144.568659 C 230.445230 143.247302 230.904226 142.002457 230.973771 140.681099 C 231.094104 138.394769 230.853438 136.089439 230.973771 133.803109 C 231.162611 130.215157 231.383018 126.625511 231.571857 123.037559 C 231.659349 121.375214 232.263677 107.977160 232.468986 107.038755 L 232.468986 102.553109 L 279.418747 97.768420 C 279.865626 100.150651 282.422152 105.375393 283.366101 107.128482 C 283.726574 107.797890 283.934514 108.594430 284.173539 109.311475 C 284.691847 110.866428 289.700156 122.651084 290.423547 123.994482 C 291.561045 126.107021 296.715112 137.485035 296.942663 139.305509 C 297.073092 140.348874 292.708549 160.279479 291.978556 162.660764 C 292.368745 165.978911 287.007772 186.193372 286.147216 191.069855 C 284.690523 199.324448 281.923431 207.329198 280.465398 215.591386 C 280.181620 217.199459 279.491393 218.718405 279.209432 220.316281 C 278.224475 225.897605 276.476426 232.743446 275.082623 238.318659 C 274.732911 239.717507 274.108234 241.049128 273.856554 242.475365 C 273.368232 245.242471 270.788456 255.996337 269.550326 258.653587 C 268.817902 260.118436 266.322234 270.217640 266.051537 271.751670 C 265.814676 273.093802 265.709650 274.451933 265.273996 275.758854 C 264.262528 278.793298 261.864946 288.597617 261.296745 291.817470 C 261.020964 293.380179 260.510035 295.014892 260.010845 296.512432 C 259.511070 298.011786 256.257838 311.998021 255.913970 313.946657 C 255.324606 317.286335 253.675509 322.601422 252.803915 326.087798 C 250.723554 334.409241 248.787204 342.752726 246.703429 351.087791 C 245.620028 355.421429 243.432210 367.181382 242.367305 370.376068 C 241.347895 373.434325 239.749547 376.384513 238.479745 379.347360 C 236.240958 384.571219 232.982336 391.712820 231.242917 396.931107 C 229.842674 401.131809 226.797054 406.680151 225.262056 411.285164 C 224.670209 413.060687 223.524787 414.642883 222.929505 416.428709 C 222.071888 419.001581 204.947417 459.624936 204.358939 460.507654 C 203.844157 461.592754 203.755292 462.308268 202.863723 462.899999 C 202.203707 460.249670 197.846964 449.332476 196.972590 447.708615 Z M 299.155589 201.237319 C 299.835814 199.632586 302.350151 186.814334 302.863731 184.760054 C 303.974811 180.315696 305.057919 175.815108 305.854161 171.303116 C 306.492328 167.686789 307.608176 164.154717 308.246506 160.537566 C 308.883294 156.929049 310.031903 153.410695 310.668747 149.801913 C 311.201094 146.785280 314.053940 137.182424 313.599384 134.909554 C 313.378331 133.804378 302.315925 109.300253 300.650805 104.347367 L 380.495302 35.567463 C 380.286768 36.836405 378.908217 43.710062 378.551522 45.136841 C 377.585470 49.001048 376.551192 52.883530 375.860135 56.799520 C 375.343758 59.725658 374.283777 62.542422 373.766833 65.471769 C 373.516655 66.889446 370.656534 78.630419 370.238111 79.885630 C 369.866113 81.001682 369.426496 82.192216 369.221393 83.354559 C 368.558255 87.112244 367.676011 91.040886 366.470175 94.658365 C 365.649003 97.121910 363.402233 106.930172 362.582616 110.208604 C 361.125362 116.037654 360.050534 122.230714 358.156800 127.911975 C 357.069584 131.173565 356.564413 135.918744 355.375685 139.484927 C 354.643714 141.680840 346.132537 150.051114 344.012049 152.642822 C 343.301451 153.511330 342.330302 154.166658 341.619704 155.035166 C 340.504826 156.397795 339.145896 157.560304 338.031187 158.922726 C 334.233790 163.563990 329.866832 167.738437 326.069465 172.379664 C 324.292024 174.552091 321.008216 177.568824 318.892431 180.154784 C 317.244831 182.168518 315.157223 183.822909 313.509656 185.836602 C 312.399467 187.193500 300.024282 200.658191 299.155589 201.237319 Z M 106.870900 200.938276 C 104.210714 198.139325 98.206140 191.394665 96.105350 188.827032 C 93.836011 186.053396 90.898625 183.825564 88.629274 181.051913 C 84.743050 176.302084 80.254750 172.045783 76.368508 167.295932 C 74.943331 165.554049 71.773432 162.543630 69.789561 160.118898 C 69.167788 159.358954 68.318032 158.785541 67.696259 158.025597 C 64.985584 154.712549 52.449248 141.799603 51.428309 139.903595 C 50.972075 139.056282 44.710533 112.434368 43.832626 108.922741 C 42.356021 103.016318 40.882691 97.122998 39.406793 91.219370 C 38.710159 88.432870 37.842996 85.647376 37.343388 82.816267 C 36.884576 80.216333 35.948199 77.701262 35.489318 75.100941 C 34.895851 71.737955 32.572115 64.750344 31.960613 61.285166 C 30.971499 55.680185 29.056396 50.111030 28.073053 44.538755 C 27.573001 41.705124 26.941143 38.814940 26.129274 35.567463 C 28.630826 36.968860 40.323390 47.765324 43.324250 50.220573 C 54.593207 59.440629 65.249028 69.409572 76.518030 78.629664 C 79.796566 81.312103 82.808832 84.320399 86.087408 87.002870 C 90.077110 90.267172 93.760347 93.906001 97.750087 97.170334 C 98.620754 97.882698 99.331482 98.790431 100.202244 99.502884 C 101.081765 100.222481 105.587725 103.880639 105.764437 104.646410 C 106.073922 105.987494 103.456294 111.168450 102.803922 112.690676 C 101.591349 115.519989 93.317921 134.107368 93.234544 135.358118 C 93.093088 137.479859 97.070329 152.728261 97.720190 156.410757 C 98.124583 158.702365 98.899847 160.902544 99.305115 163.199056 C 100.616794 170.631915 102.778378 177.896840 104.089804 185.328243 C 104.431412 187.264031 105.214165 189.107923 105.555104 191.039958 C 106.106840 194.166417 106.581211 197.387176 107.468986 200.938276 L 106.870900 200.938276 Z M 202.863723 186.285166 C 201.846873 184.329310 198.607092 176.308052 197.570676 174.383238 C 196.414224 172.235584 190.834539 161.232301 190.274018 159.550709 C 189.823799 158.200083 189.279372 138.260252 189.107742 134.999281 C 188.897982 131.013830 188.719417 127.023010 188.509656 123.037559 C 188.373628 120.453011 188.645685 117.846986 188.509656 115.262439 C 188.419941 113.557847 188.001286 111.883299 187.911570 110.178707 C 187.749382 107.097132 188.073758 103.989947 187.911570 100.908372 C 187.864208 100.008489 187.659889 99.116867 187.612527 98.216984 C 187.486962 95.831249 187.738092 93.425687 187.612527 91.039951 C 187.565165 90.140068 187.360846 89.248446 187.313484 88.348563 C 187.173468 85.688257 187.032504 73.792459 187.403212 71.691879 C 187.748426 69.735567 196.945435 49.912124 198.437871 47.140415 C 200.209502 43.850285 201.200136 40.090809 202.863723 36.165549 L 203.461809 36.165549 C 205.461128 39.230031 208.176012 47.675965 209.980963 51.027975 C 210.994576 52.910441 219.331853 71.520439 219.520407 72.589009 C 219.970020 75.136716 219.189938 87.959097 219.012049 91.338994 C 218.797542 95.414626 219.226556 99.524128 219.012049 103.599760 C 218.947656 104.823211 218.478355 105.964825 218.413963 107.188276 C 218.225615 110.766880 218.602310 114.375223 218.413963 117.953827 C 218.261730 120.846240 217.968109 123.733662 217.815876 126.626075 C 217.706007 128.713594 217.925746 130.818461 217.815876 132.905980 C 217.715925 134.805058 217.317742 136.688719 217.217790 138.587798 C 217.039833 141.968980 216.951157 157.629324 216.320661 159.520812 C 215.434224 162.180124 213.151657 166.175074 211.775221 168.731353 C 210.458222 171.177167 209.623292 173.881204 208.306292 176.327018 C 207.399838 178.010475 203.937176 184.383701 203.461809 186.285166 L 202.863723 186.285166 Z M 172.062288 85.507654 C 164.687694 85.208611 142.981360 81.879737 135.579034 80.573444 C 132.979188 80.114647 129.025218 78.629664 126.009656 78.629664 C 126.623335 77.416340 127.012828 76.689184 127.504872 76.087798 C 129.006971 74.251899 139.504438 61.782363 140.483348 61.255269 C 141.642625 60.631032 148.895888 60.986123 150.680709 60.986123 C 159.103755 60.986123 167.526801 60.986123 176.547934 60.986123 C 175.961179 63.704114 174.225564 66.368303 173.497709 68.551927 C 172.606625 71.225122 173.734694 76.164957 173.856546 78.480142 C 173.968658 80.610260 173.856546 82.775885 173.856546 85.507654 L 172.062288 85.507654 Z M 233.067073 85.507654 C 233.067073 81.239325 233.556588 69.790744 233.216594 67.864114 C 233.021474 66.758433 231.247448 62.729649 230.674728 60.986123 C 235.697506 60.986123 264.278912 60.614551 265.931912 61.165542 C 267.069983 61.544908 280.259044 76.978159 280.614919 78.330621 L 280.315876 78.629664 C 276.377752 79.905871 250.760751 83.555027 245.118523 84.550731 C 244.126277 84.725816 234.649422 85.507654 233.067073 85.507654 Z" transform="scale(1.000000,1.000000) translate(171.538191,186.920575)" fill="#000b4b" opacity="0.996078"></path>
        <path d="M 1.362823 363.739234 C 1.951301 362.856517 19.075772 322.233162 19.933390 319.660289 C 20.528671 317.874464 21.674093 316.292267 22.265940 314.516745 C 23.800938 309.911731 26.846558 304.363389 28.246801 300.162687 C 29.986220 294.944400 33.244842 287.802799 35.483629 282.578940 C 36.753431 279.616093 38.351779 276.665905 39.371189 273.607648 C 40.436094 270.412962 42.623912 258.653009 43.707313 254.319371 C 45.791088 245.984306 47.727438 237.640821 49.807799 229.319378 C 50.679393 225.833002 52.328490 220.517915 52.917854 217.178237 C 53.261722 215.229602 56.514954 201.243366 57.014729 199.744012 C 57.513919 198.246472 58.024848 196.611759 58.300629 195.049050 C 58.868830 191.829197 61.266412 182.024878 62.277880 178.990434 C 62.713534 177.683513 62.818560 176.325382 63.055421 174.983250 C 63.326118 173.449220 65.821786 163.350016 66.554210 161.885167 L 88.982440 65.892344 C 89.712433 63.511059 94.076976 43.580454 93.946547 42.537089 C 93.718997 40.716615 88.564929 29.338601 87.427431 27.226062 C 86.704040 25.882664 81.695731 14.098008 81.177423 12.543055 C 80.938399 11.826010 80.730458 11.029470 80.369985 10.360062 C 79.426037 8.606973 76.869510 3.382231 76.422631 1.000000 L 29.472871 5.784689 L 29.472871 10.270335 L 30.370000 10.270335 C 32.384304 13.767862 36.476805 29.464301 37.547033 33.745215 C 38.632525 38.087184 44.724067 54.677208 44.724067 57.369617 C 44.724067 58.185370 37.824453 103.644463 37.098469 107.758373 C 36.698393 110.025471 36.571487 112.339497 36.171442 114.606467 C 34.013186 126.836536 32.707719 139.218236 30.549418 151.448557 C 30.080941 154.103308 30.089942 156.843376 29.622392 159.492823 C 28.325593 166.841352 27.659609 174.303456 26.362815 181.651907 C 25.945730 184.015442 25.852906 186.435379 25.435789 188.799043 C 24.207105 195.761585 23.404854 202.799702 22.176213 209.761954 C 21.727826 212.302863 21.637806 214.906272 21.189392 217.447365 C 20.227078 222.900399 19.759466 228.440949 18.797048 233.894733 C 16.707009 245.738209 15.264992 257.697516 13.175024 269.540670 C 12.530121 273.195120 12.294774 276.921099 11.649911 280.575366 C 9.161508 294.676272 7.918244 308.998149 5.429801 323.099284 C 4.602312 327.788427 4.144768 334.966507 3.246809 340.055020 C 2.932521 341.835906 2.350621 345.120588 2.259952 346.843301 C 2.195020 348.077008 2.267191 349.294304 2.050636 350.521527 C 1.628221 352.915136 1.191729 355.476863 1.063780 357.907895 C 1.003531 359.052626 0.867008 362.149519 1.362823 363.739234 Z" transform="scale(1.000000,1.000000) translate(374.534306,283.688995)" fill="#00a5ce" opacity="1.000000"></path>
        <path d="M 3.392344 25.644058 C 4.974694 25.644058 14.451549 24.862219 15.443795 24.687134 C 21.086023 23.691430 46.703024 20.042274 50.641148 18.766067 L 50.940191 18.467024 C 50.584316 17.114563 37.395255 1.681312 36.257184 1.301945 C 34.604184 0.750955 6.022778 1.122526 1.000000 1.122526 C 1.572720 2.866052 3.346746 6.894836 3.541866 8.000517 C 3.881860 9.927147 3.392344 21.375729 3.392344 25.644058 Z" transform="scale(1.000000,1.000000) translate(401.212919,246.784172)" fill="#fb4f40" opacity="0.996078"></path>
        <path d="M 1.000000 96.992823 C 2.238130 94.335573 4.817906 83.581707 5.306227 80.814601 C 5.557908 79.388364 6.182585 78.056743 6.532297 76.657895 C 7.926100 71.082682 9.674149 64.236840 10.659106 58.655517 C 10.941066 57.057641 11.631294 55.538695 11.915072 53.930622 C 13.373105 45.668433 16.140197 37.663684 17.596890 29.409091 C 18.457446 24.532608 23.818419 4.318147 23.428230 1.000000 Z" transform="scale(1.000000,1.000000) translate(440.088517,348.581340)" fill="#001142" opacity="1.000000"></path>
        <path d="M 81.741627 166.370813 L 82.339713 166.370813 C 81.451938 162.819713 80.977567 159.598954 80.425830 156.472495 C 80.084891 154.540460 79.302139 152.696568 78.960530 150.760780 C 77.649105 143.329377 75.487521 136.064452 74.175841 128.631594 C 73.770573 126.335081 72.995309 124.134902 72.590916 121.843294 C 71.941056 118.160798 67.963815 102.912396 68.105270 100.790655 C 68.188647 99.539906 76.462075 80.952526 77.674648 78.123213 C 78.327021 76.600987 80.944648 71.420031 80.635164 70.078947 C 80.458451 69.313176 75.952492 65.655018 75.072970 64.935421 C 74.202208 64.222968 73.491481 63.315235 72.620813 62.602871 C 68.631073 59.338538 64.947836 55.699709 60.958134 52.435407 C 57.679559 49.752936 54.667293 46.744640 51.388756 44.062201 C 40.119754 34.842109 29.463934 24.873166 18.194976 15.653110 C 15.194116 13.197861 3.501553 2.401397 1.000000 1.000000 C 1.811869 4.247477 2.443727 7.137662 2.943780 9.971292 C 3.927123 15.543567 5.842225 21.112723 6.831340 26.717703 C 7.442842 30.182881 9.766577 37.170492 10.360044 40.533478 C 10.818925 43.133799 11.755303 45.648870 12.214115 48.248804 C 12.713722 51.079914 13.580885 53.865407 14.277519 56.651907 C 15.753417 62.555535 17.226747 68.448855 18.703353 74.355278 C 19.581260 77.866905 25.842802 104.488819 26.299036 105.336132 C 27.319974 107.232140 39.856310 120.145086 42.566986 123.458134 C 43.188758 124.218078 44.038514 124.791491 44.660287 125.551435 C 46.644159 127.976167 49.814058 130.986586 51.239234 132.728469 C 55.125476 137.478320 59.613776 141.734621 63.500000 146.484450 C 65.769351 149.258101 68.706738 151.485933 70.976077 154.259569 C 73.076867 156.827202 79.081441 163.571862 81.741627 166.370813 Z" transform="scale(1.000000,1.000000) translate(196.667464,221.488038)" fill="#00cbff" opacity="1.000000"></path>
        <path d="M 16.697371 151.119617 L 17.295457 151.119617 C 17.770823 149.218152 21.233486 142.844926 22.139940 141.161469 C 23.456939 138.715655 24.291870 136.011618 25.608869 133.565804 C 26.985305 131.009524 29.267872 127.014575 30.154309 124.355263 C 30.784805 122.463775 30.873481 106.803431 31.051438 103.422249 C 31.151389 101.523170 31.549573 99.639509 31.649524 97.740431 C 31.759394 95.652912 31.539655 93.548045 31.649524 91.460526 C 31.801756 88.568113 32.095378 85.680690 32.247610 82.788278 C 32.435958 79.209674 32.059263 75.601331 32.247610 72.022727 C 32.312002 70.799276 32.781304 69.657662 32.845696 68.434211 C 33.060203 64.358579 32.631189 60.249077 32.845696 56.173445 C 33.023586 52.793548 33.803668 39.971167 33.354055 37.423460 C 33.165501 36.354890 24.828224 17.744892 23.814610 15.862426 C 22.009660 12.510416 19.294776 4.064482 17.295457 1.000000 L 16.697371 1.000000 C 15.033784 4.925260 14.043150 8.684736 12.271519 11.974866 C 10.779083 14.746575 1.582074 34.570018 1.236859 36.526330 C 0.866152 38.626910 1.007116 50.522708 1.147132 53.183014 C 1.194494 54.082897 1.398813 54.974519 1.446175 55.874402 C 1.571740 58.260138 1.320610 60.665700 1.446175 63.051435 C 1.493537 63.951318 1.697856 64.842940 1.745218 65.742823 C 1.907406 68.824398 1.583030 71.931582 1.745218 75.013158 C 1.834933 76.717750 2.253589 78.392298 2.343304 80.096890 C 2.479333 82.681437 2.207275 85.287462 2.343304 87.872010 C 2.553065 91.857461 2.731630 95.848281 2.941390 99.833732 C 3.113020 103.094703 3.657447 123.034534 4.107665 124.385160 C 4.668186 126.066752 10.247872 137.070035 11.404323 139.217689 C 12.440739 141.142503 15.680520 149.163761 16.697371 151.119617 Z" transform="scale(1.000000,1.000000) translate(357.704543,222.086124)" fill="#00cbff" opacity="1.000000"></path>
        <path d="M 47.052632 25.622107 L 48.846890 25.622107 C 48.846890 22.890338 48.959001 20.724713 48.846890 18.594595 C 48.725038 16.279410 47.596969 11.339575 48.488053 8.666380 C 49.215908 6.482756 50.951523 3.818567 51.538278 1.100576 C 42.517145 1.100576 34.094099 1.100576 25.671053 1.100576 C 23.886231 1.100576 16.632969 0.745485 15.473692 1.369722 C 14.494782 1.896816 3.997314 14.366352 2.495215 16.202251 C 2.003172 16.803637 1.613679 17.530793 1.000000 18.744117 C 4.015561 18.744117 7.969532 20.229101 10.569378 20.687897 C 17.971704 21.994190 39.678038 25.323064 47.052632 25.622107 Z" transform="scale(1.000000,1.000000) translate(296.547847,246.806122)" fill="#fb4f40" opacity="0.996078"></path>
        <path d="M 1.000000 166.669856 C 1.868692 166.090728 14.243878 152.626037 15.354067 151.269139 C 17.001634 149.255446 19.089241 147.601055 20.736842 145.587321 C 22.852627 143.001361 26.136435 139.984628 27.913876 137.812201 C 31.711243 133.170974 36.078200 128.996527 39.875598 124.355263 C 40.990307 122.992841 42.349236 121.830332 43.464115 120.467703 C 44.174712 119.599195 45.145862 118.943867 45.856459 118.075359 C 47.976947 115.483651 56.488125 107.113377 57.220096 104.917464 C 58.408823 101.351281 58.913995 96.606102 60.001211 93.344512 C 61.894945 87.663251 62.969773 81.470191 64.427026 75.641141 C 65.246643 72.362709 67.493414 62.554447 68.314586 60.090902 C 69.520422 56.473423 70.402666 52.544782 71.065804 48.787096 C 71.270906 47.624753 71.710523 46.434219 72.082521 45.318167 C 72.500945 44.062956 75.361066 32.321983 75.611244 30.904306 C 76.128188 27.974959 77.188168 25.158195 77.704545 22.232057 C 78.395603 18.316067 79.429881 14.433585 80.395933 10.569378 C 80.752628 9.142599 82.131179 2.268942 82.339713 1.000000 L 2.495215 69.779904 C 4.160336 74.732790 15.222742 99.236915 15.443795 100.342091 C 15.898351 102.614961 13.045505 112.217818 12.513158 115.234450 C 11.876314 118.843232 10.727705 122.361586 10.090916 125.970103 C 9.452587 129.587254 8.336739 133.119326 7.698572 136.735653 C 6.902329 141.247645 5.819222 145.748233 4.708141 150.192591 C 4.194562 152.246871 1.680224 165.065123 1.000000 166.669856 Z" transform="scale(1.000000,1.000000) translate(469.693780,221.488038)" fill="#00cbff" opacity="1.000000"></path>
        <path d="M 2.495215 31.352871 C 2.495215 33.300012 2.612981 45.493905 3.392344 46.753589 C 3.790423 44.170923 4.014466 41.058450 3.631594 38.888741 C 3.486209 38.064992 3.137621 37.278678 3.093301 36.436603 C 2.941577 33.553839 3.245026 30.647118 3.093301 27.764354 C 3.036715 26.689207 2.505641 25.707816 2.435421 24.654299 C 2.220416 21.429448 2.665607 18.142945 2.495215 14.905502 C 2.406045 13.211264 1.966139 11.432005 1.897129 10.120813 C 1.802955 8.331512 1.991303 6.527340 1.897129 4.738038 C 1.844502 3.738117 1.598086 2.747672 1.598086 1.000000 L 1.000000 1.000000 C 1.000000 9.409563 1.512854 13.884182 1.897129 21.185407 C 1.959912 22.378275 1.834347 23.581056 1.897129 24.773923 C 2.013894 26.992447 2.495215 29.115598 2.495215 31.352871 Z" transform="scale(1.000000,1.000000) translate(345.590909,303.724880)" fill="#001549" opacity="1.000000"></path>
        <path d="M 39.277512 98.787081 L 39.875598 98.787081 C 39.875598 97.409194 39.357390 96.498494 39.217718 95.706941 C 38.856050 93.657567 38.562647 91.596230 38.200964 89.546643 C 37.917070 87.937959 37.290016 86.378272 37.004792 84.761954 C 36.225554 80.346319 35.122588 75.990118 34.343301 71.574163 C 34.055494 69.943255 33.494708 68.360362 33.206923 66.729661 C 31.612019 57.691791 28.790233 48.878705 27.196165 39.845701 C 26.968177 38.553721 26.467230 37.309916 26.239242 36.017935 C 25.844008 33.778326 23.425597 21.265958 22.770350 20.049047 C 22.655668 19.836090 2.548855 1.815121 1.000000 1.000000 C 1.051646 1.701379 5.369700 20.727739 5.635167 22.232057 C 6.202880 25.449096 7.520331 28.528685 8.087306 31.741623 C 8.727951 35.371865 9.808228 38.901730 10.449753 42.537089 C 10.632557 43.572929 11.104285 44.551473 11.287089 45.587313 C 12.437250 52.104944 14.166304 58.599428 15.772735 65.025112 C 16.360832 67.377540 19.014718 80.145412 19.600464 81.233250 C 20.332930 82.593521 36.974807 95.716807 39.277512 98.787081 Z" transform="scale(1.000000,1.000000) translate(326.153110,473.880383)" fill="#fbffff" opacity="1.000000"></path>
        <path d="M 93.978783 366.123583 C 94.870352 365.531852 94.959217 364.816339 95.473999 363.731238 C 94.978184 362.141523 95.114707 359.044630 95.174956 357.899899 C 95.302905 355.468867 95.739397 352.907140 96.161812 350.513531 C 96.378367 349.286308 96.306196 348.069012 96.371128 346.835305 C 96.461797 345.112592 97.043697 341.827910 97.357984 340.047024 C 98.255943 334.958511 98.713488 327.780431 99.540977 323.091288 C 102.029419 308.990153 103.272683 294.668276 105.761087 280.567370 C 106.405949 276.913103 106.641297 273.187124 107.286200 269.532674 C 109.376168 257.689520 110.818185 245.730213 112.908224 233.886737 C 113.870642 228.432953 114.338254 222.892403 115.300568 217.439369 C 115.748982 214.898276 115.839001 212.294867 116.287388 209.753958 C 117.516030 202.791706 118.318281 195.753589 119.546965 188.791047 C 119.964082 186.427383 120.056905 184.007446 120.473991 181.643911 C 121.770785 174.295460 122.436769 166.833356 123.733568 159.484827 C 124.201118 156.835380 124.192117 154.095312 124.660594 151.440561 C 126.818895 139.210240 128.124362 126.828540 130.282618 114.598471 C 130.682663 112.331501 130.809568 110.017475 131.209645 107.750377 C 131.935629 103.636467 138.835243 58.177374 138.835243 57.361621 C 138.835243 54.669212 132.743701 38.079188 131.658209 33.737219 C 130.587980 29.456305 126.495480 13.759866 124.481176 10.262339 L 123.584046 10.262339 C 123.378737 11.200745 122.774409 24.598798 122.686917 26.261143 C 122.498078 29.849095 122.277671 33.438741 122.088831 37.026693 C 121.968498 39.313023 122.209164 41.618353 122.088831 43.904683 C 122.019286 45.226041 121.560290 46.470886 121.490745 47.792243 C 121.407035 49.382734 121.574455 50.986442 121.490745 52.576932 C 121.343742 55.369994 121.039662 58.157076 120.892659 60.950138 C 120.811086 62.500014 121.103276 64.142605 120.832865 65.675033 C 120.542295 67.321497 110.373170 88.304172 108.871142 91.093693 C 107.243612 94.116207 101.531513 107.673303 100.318482 109.155865 C 98.592555 111.265364 94.038331 112.509622 91.586439 111.189372 C 90.568743 110.641382 89.396993 109.942144 88.655802 109.036277 C 87.565099 107.703163 84.002801 99.574761 83.123506 97.523119 C 81.946113 94.775821 69.327602 68.203507 68.560123 66.781478 C 67.780759 65.521794 67.662994 53.327901 67.662994 51.380760 C 67.662994 49.143487 67.181672 47.020336 67.064908 44.801813 C 67.002125 43.608945 67.127690 42.406164 67.064908 41.213296 C 66.680633 33.912071 66.167778 29.437452 66.167778 21.027889 L 65.270649 5.776693 C 60.121847 5.776693 53.701377 4.869661 49.182118 4.072162 C 47.892089 3.844493 46.564034 4.032309 45.264661 3.803016 C 40.494573 2.961227 35.670435 2.604075 30.850800 2.068552 C 29.121751 1.876443 19.867674 0.490222 18.978787 1.201320 C 17.849395 2.104845 12.588419 16.273187 11.203667 18.844860 C 10.177839 20.749977 1.928778 39.552307 1.275434 41.512339 C 1.113974 41.996718 1.036186 42.529311 1.006288 43.037451 C 0.838881 45.883503 4.064202 55.919823 4.714429 59.604444 C 5.921640 66.445307 7.962437 73.125452 9.170178 79.969269 C 9.790180 83.482660 10.971713 86.888544 11.592420 90.405880 C 12.427256 95.136622 14.047040 99.730067 14.881893 104.460904 C 15.343537 107.076885 16.214580 109.620450 16.676152 112.236023 C 17.424483 116.476565 18.889763 120.593220 19.636685 124.825729 C 20.453425 129.453970 21.756617 134.053098 22.896244 138.611607 C 23.933304 142.759848 25.202497 146.895678 25.946487 151.111621 C 26.462270 154.034395 27.523965 156.860871 28.039788 159.783870 C 28.769788 163.920537 30.299571 167.904301 31.030219 172.044636 C 31.955162 177.285984 33.991458 182.345724 34.917778 187.594875 C 35.450664 190.614560 36.478253 193.546816 37.011080 196.566167 C 38.202677 203.318548 40.466492 210.985902 42.154606 217.738412 C 42.951475 220.925834 43.915640 224.129006 44.487156 227.367602 C 45.162463 231.194337 46.503191 234.904238 47.178544 238.731238 C 47.818601 242.358230 49.260328 245.843007 49.899829 249.466892 C 50.298688 251.727047 55.113561 272.225285 55.671374 273.898695 C 57.247086 278.625859 61.232278 285.796748 62.848408 290.645107 C 64.012597 294.137704 67.230850 300.383371 68.261080 303.474061 C 69.489932 307.160616 71.491111 310.592385 72.716829 314.269518 C 73.125929 315.496839 73.834177 316.604835 74.241941 317.828128 C 77.475194 327.527888 82.706538 336.523355 85.934518 346.207313 C 86.465255 347.799505 87.295092 349.460330 88.087650 350.932199 C 88.962024 352.556060 93.318767 363.473254 93.978783 366.123583 Z M 85.007491 288.970473 C 82.704786 285.900199 66.062910 272.776913 65.330443 271.416642 C 64.744697 270.328803 62.090812 257.560931 61.502714 255.208504 C 59.896284 248.782820 58.167230 242.288335 57.017068 235.770705 C 56.834264 234.734864 56.362537 233.756321 56.179733 232.720480 C 55.538208 229.085122 54.457930 225.555256 53.817285 221.925015 C 53.250310 218.712076 51.932860 215.632488 51.365147 212.415449 C 51.099679 210.911131 46.781626 191.884770 46.729979 191.183392 C 48.278834 191.998513 68.385647 210.019482 68.500329 210.232438 C 69.155576 211.449350 71.573987 223.961718 71.969221 226.201327 C 72.197209 227.493307 72.698156 228.737112 72.926144 230.029093 C 74.520213 239.062097 77.341998 247.875183 78.936903 256.913053 C 79.224687 258.543754 79.785474 260.126646 80.073281 261.757554 C 80.852567 266.173509 81.955533 270.529711 82.734771 274.945346 C 83.019995 276.561664 83.647050 278.121351 83.930944 279.730035 C 84.292627 281.779621 84.586029 283.840959 84.947697 285.890333 C 85.087369 286.681886 85.605578 287.592586 85.605578 288.970473 L 85.007491 288.970473 Z" transform="scale(1.000000,1.000000) translate(280.423131,283.696991)" fill="#00cbff" opacity="1.000000"></path>
    </g>
</svg>